<svg xmlns="http://www.w3.org/2000/svg" viewBox="0 0 100 100" width="100" height="100">
  <!-- GRC Monogram — reversed: white circle, gold ring, dark green text -->
  <circle cx="50" cy="50" r="42" fill="#FFFFFF" stroke="#B48A3E" stroke-width="2.5"/>
  <path d="M18.64-12.48L13.73-12.48Q13.23-13.39 12.31-13.87Q11.39-14.35 10.14-14.35L10.14-14.35Q7.98-14.35 6.68-12.94Q5.38-11.52 5.38-9.15L5.38-9.15Q5.38-6.63 6.75-5.21Q8.11-3.80 10.50-3.80L10.50-3.80Q12.14-3.80 13.27-4.63Q14.40-5.46 14.92-7.02L14.92-7.02L9.28-7.02L9.28-10.30L18.95-10.30L18.95-6.16Q18.46-4.50 17.28-3.07Q16.09-1.64 14.27-0.75Q12.45 0.13 10.17 0.13L10.17 0.13Q7.46 0.13 5.34-1.05Q3.22-2.24 2.04-4.34Q0.86-6.45 0.86-9.15L0.86-9.15Q0.86-11.86 2.04-13.98Q3.22-16.09 5.33-17.28Q7.44-18.46 10.14-18.46L10.14-18.46Q13.42-18.46 15.67-16.87Q17.91-15.29 18.64-12.48L18.64-12.48ZM37.75 0L32.73 0L28.94-6.89L27.87-6.89L27.87 0L23.42 0L23.42-18.25L30.89-18.25Q33.04-18.25 34.57-17.50Q36.09-16.74 36.84-15.43Q37.59-14.12 37.59-12.51L37.59-12.51Q37.59-10.69 36.57-9.26Q35.54-7.83 33.54-7.23L33.54-7.23L37.75 0ZM27.87-14.56L27.87-10.04L30.63-10.04Q31.85-10.04 32.46-10.63Q33.07-11.23 33.07-12.32L33.07-12.32Q33.07-13.36 32.46-13.96Q31.85-14.56 30.63-14.56L30.63-14.56L27.87-14.56ZM41.62-9.15Q41.62-11.86 42.79-13.98Q43.96-16.09 46.06-17.28Q48.15-18.46 50.80-18.46L50.80-18.46Q54.05-18.46 56.36-16.74Q58.68-15.03 59.46-12.06L59.46-12.06L54.57-12.06Q54.02-13.21 53.02-13.81Q52.02-14.40 50.75-14.40L50.75-14.40Q48.69-14.40 47.42-12.97Q46.15-11.54 46.15-9.15L46.15-9.15Q46.15-6.76 47.42-5.33Q48.69-3.90 50.75-3.90L50.75-3.90Q52.02-3.90 53.02-4.50Q54.02-5.10 54.57-6.24L54.57-6.24L59.46-6.24Q58.68-3.28 56.36-1.57Q54.05 0.13 50.80 0.13L50.80 0.13Q48.15 0.13 46.06-1.05Q43.96-2.24 42.79-4.34Q41.62-6.45 41.62-9.15L41.62-9.15Z" fill="#14532D" transform="translate(18.711999999999996, 60)"/>
</svg>
