<svg xmlns="http://www.w3.org/2000/svg" viewBox="0 0 480 120" width="480" height="120">
  <!-- GRC Logo Primary — gold ring on dark green circle -->
  <circle cx="52" cy="60" r="42" fill="#14532D" stroke="#B48A3E" stroke-width="2.5"/>
  <path d="M17.21-11.52L12.67-11.52Q12.22-12.36 11.36-12.80Q10.51-13.25 9.36-13.25L9.36-13.25Q7.37-13.25 6.17-11.94Q4.97-10.63 4.97-8.45L4.97-8.45Q4.97-6.12 6.23-4.81Q7.49-3.50 9.70-3.50L9.70-3.50Q11.21-3.50 12.25-4.27Q13.30-5.04 13.78-6.48L13.78-6.48L8.57-6.48L8.57-9.50L17.50-9.50L17.50-5.69Q17.04-4.15 15.95-2.83Q14.86-1.51 13.18-0.70Q11.50 0.12 9.38 0.12L9.38 0.12Q6.89 0.12 4.93-0.97Q2.98-2.06 1.88-4.01Q0.79-5.95 0.79-8.45L0.79-8.45Q0.79-10.94 1.88-12.90Q2.98-14.86 4.92-15.95Q6.86-17.04 9.36-17.04L9.36-17.04Q12.38-17.04 14.46-15.58Q16.54-14.11 17.21-11.52L17.21-11.52ZM35 0L30.37 0L26.86-6.36L25.88-6.36L25.88 0L21.78 0L21.78-16.85L28.66-16.85Q30.66-16.85 32.06-16.15Q33.46-15.46 34.16-14.24Q34.86-13.03 34.86-11.54L34.86-11.54Q34.86-9.86 33.91-8.54Q32.96-7.22 31.11-6.67L31.11-6.67L35 0ZM25.88-13.44L25.88-9.26L28.42-9.26Q29.55-9.26 30.12-9.82Q30.68-10.37 30.68-11.38L30.68-11.38Q30.68-12.34 30.12-12.89Q29.55-13.44 28.42-13.44L28.42-13.44L25.88-13.44ZM38.73-8.45Q38.73-10.94 39.81-12.90Q40.89-14.86 42.82-15.95Q44.75-17.04 47.20-17.04L47.20-17.04Q50.20-17.04 52.34-15.46Q54.47-13.87 55.19-11.14L55.19-11.14L50.68-11.14Q50.18-12.19 49.25-12.74Q48.33-13.30 47.15-13.30L47.15-13.30Q45.26-13.30 44.08-11.98Q42.90-10.66 42.90-8.45L42.90-8.45Q42.90-6.24 44.08-4.92Q45.26-3.60 47.15-3.60L47.15-3.60Q48.33-3.60 49.25-4.15Q50.18-4.70 50.68-5.76L50.68-5.76L55.19-5.76Q54.47-3.02 52.34-1.45Q50.20 0.12 47.20 0.12L47.20 0.12Q44.75 0.12 42.82-0.97Q40.89-2.06 39.81-4.01Q38.73-5.95 38.73-8.45L38.73-8.45Z" fill="#FFFFFF" transform="translate(22.887999999999998, 70)"/>

  <!-- Stacked Wordmark -->
  <path d="M9.29-6.44L7.51-6.44Q7.16-7.11 6.54-7.46Q5.92-7.80 5.10-7.80L5.10-7.80Q4.20-7.80 3.50-7.40Q2.80-6.99 2.40-6.25Q2.00-5.51 2.00-4.54L2.00-4.54Q2.00-3.56 2.40-2.81Q2.80-2.07 3.50-1.66Q4.20-1.26 5.10-1.26L5.10-1.26Q6.31-1.26 7.06-1.94Q7.81-2.61 7.98-3.77L7.98-3.77L4.59-3.77L4.59-4.95L9.57-4.95L9.57-3.80Q9.43-2.74 8.82-1.86Q8.22-0.98 7.25-0.45Q6.28 0.08 5.10 0.08L5.10 0.08Q3.82 0.08 2.77-0.51Q1.72-1.11 1.10-2.16Q0.48-3.21 0.48-4.54L0.48-4.54Q0.48-5.86 1.10-6.92Q1.72-7.97 2.78-8.56Q3.84-9.15 5.10-9.15L5.10-9.15Q6.54-9.15 7.66-8.44Q8.79-7.74 9.29-6.44L9.29-6.44ZM16.51-9.04L16.51-1.20L19.56-1.20L19.56 0L15.02 0L15.02-9.04L16.51-9.04ZM28.92 0.09Q27.66 0.09 26.60-0.50Q25.54-1.09 24.92-2.15Q24.30-3.21 24.30-4.54L24.30-4.54Q24.30-5.86 24.92-6.92Q25.54-7.97 26.60-8.56Q27.66-9.15 28.92-9.15L28.92-9.15Q30.19-9.15 31.25-8.56Q32.31-7.97 32.92-6.92Q33.53-5.86 33.53-4.54L33.53-4.54Q33.53-3.21 32.92-2.15Q32.31-1.09 31.25-0.50Q30.19 0.09 28.92 0.09L28.92 0.09ZM28.92-1.20Q29.81-1.20 30.52-1.61Q31.22-2.02 31.61-2.78Q32.01-3.54 32.01-4.54L32.01-4.54Q32.01-5.54 31.61-6.29Q31.22-7.05 30.52-7.45Q29.81-7.85 28.92-7.85L28.92-7.85Q28.02-7.85 27.32-7.45Q26.62-7.05 26.22-6.29Q25.82-5.54 25.82-4.54L25.82-4.54Q25.82-3.54 26.22-2.78Q26.62-2.02 27.32-1.61Q28.02-1.20 28.92-1.20L28.92-1.20ZM43.82-4.64Q44.55-4.51 45.06-3.87Q45.57-3.24 45.57-2.43L45.57-2.43Q45.57-1.74 45.21-1.19Q44.85-0.64 44.18-0.32Q43.50 0 42.60 0L42.60 0L38.99 0L38.99-9.04L42.43-9.04Q43.36-9.04 44.02-8.72Q44.68-8.41 45.02-7.88Q45.36-7.36 45.36-6.71L45.36-6.71Q45.36-5.93 44.94-5.41Q44.53-4.89 43.82-4.64L43.82-4.64ZM40.47-7.83L40.47-5.24L42.30-5.24Q43.03-5.24 43.44-5.57Q43.85-5.90 43.85-6.53L43.85-6.53Q43.85-7.14 43.44-7.48Q43.03-7.83 42.30-7.83L42.30-7.83L40.47-7.83ZM42.47-1.21Q43.23-1.21 43.66-1.57Q44.08-1.94 44.08-2.59L44.08-2.59Q44.08-3.25 43.63-3.64Q43.17-4.03 42.42-4.03L42.42-4.03L40.47-4.03L40.47-1.21L42.47-1.21ZM57.28 0L56.63-1.85L52.84-1.85L52.19 0L50.65 0L53.88-9.05L55.60-9.05L58.84 0L57.28 0ZM53.26-3.06L56.21-3.06L54.74-7.25L53.26-3.06ZM65.72-9.04L65.72-1.20L68.78-1.20L68.78 0L64.24 0L64.24-9.04L65.72-9.04ZM87.85 0L86.08 0L84.00-3.61L82.87-3.61L82.87 0L81.39 0L81.39-9.04L84.51-9.04Q85.55-9.04 86.27-8.67Q86.99-8.31 87.35-7.70Q87.71-7.09 87.71-6.33L87.71-6.33Q87.71-5.45 87.20-4.73Q86.68-4.00 85.62-3.74L85.62-3.74L87.85 0ZM82.87-7.83L82.87-4.80L84.51-4.80Q85.34-4.80 85.77-5.21Q86.19-5.63 86.19-6.33L86.19-6.33Q86.19-7.03 85.77-7.43Q85.36-7.83 84.51-7.83L84.51-7.83L82.87-7.83ZM98.60-7.84L95.09-7.84L95.09-5.19L98.21-5.19L98.21-3.98L95.09-3.98L95.09-1.21L98.60-1.21L98.60 0L93.61 0L93.61-9.05L98.60-9.05L98.60-7.84ZM107.40 0.09Q106.49 0.09 105.76-0.23Q105.03-0.55 104.61-1.13Q104.20-1.72 104.20-2.50L104.20-2.50L105.78-2.50Q105.84-1.91 106.25-1.53Q106.66-1.16 107.40-1.16L107.40-1.16Q108.16-1.16 108.59-1.53Q109.02-1.90 109.02-2.48L109.02-2.48Q109.02-2.94 108.75-3.22Q108.49-3.51 108.09-3.67Q107.70-3.82 106.99-4.00L106.99-4.00Q106.11-4.24 105.56-4.48Q105.00-4.72 104.61-5.23Q104.22-5.73 104.22-6.58L104.22-6.58Q104.22-7.36 104.61-7.94Q105.00-8.53 105.71-8.84Q106.41-9.15 107.33-9.15L107.33-9.15Q108.64-9.15 109.48-8.50Q110.32-7.84 110.41-6.70L110.41-6.70L108.77-6.70Q108.73-7.19 108.31-7.54Q107.88-7.89 107.17-7.89L107.17-7.89Q106.54-7.89 106.14-7.57Q105.73-7.24 105.73-6.63L105.73-6.63Q105.73-6.21 105.99-5.95Q106.24-5.68 106.63-5.53Q107.02-5.37 107.70-5.19L107.70-5.19Q108.59-4.94 109.16-4.69Q109.72-4.45 110.12-3.93Q110.52-3.42 110.52-2.56L110.52-2.56Q110.52-1.87 110.15-1.26Q109.78-0.65 109.07-0.28Q108.36 0.09 107.40 0.09L107.40 0.09ZM120.39 0.09Q119.13 0.09 118.07-0.50Q117.01-1.09 116.39-2.15Q115.78-3.21 115.78-4.54L115.78-4.54Q115.78-5.86 116.39-6.92Q117.01-7.97 118.07-8.56Q119.13-9.15 120.39-9.15L120.39-9.15Q121.67-9.15 122.73-8.56Q123.79-7.97 124.40-6.92Q125.01-5.86 125.01-4.54L125.01-4.54Q125.01-3.21 124.40-2.15Q123.79-1.09 122.73-0.50Q121.67 0.09 120.39 0.09L120.39 0.09ZM120.39-1.20Q121.29-1.20 121.99-1.61Q122.69-2.02 123.09-2.78Q123.49-3.54 123.49-4.54L123.49-4.54Q123.49-5.54 123.09-6.29Q122.69-7.05 121.99-7.45Q121.29-7.85 120.39-7.85L120.39-7.85Q119.50-7.85 118.79-7.45Q118.09-7.05 117.69-6.29Q117.30-5.54 117.30-4.54L117.30-4.54Q117.30-3.54 117.69-2.78Q118.09-2.02 118.79-1.61Q119.50-1.20 120.39-1.20L120.39-1.20ZM130.45-9.04L131.93-9.04L131.93-3.28Q131.93-2.25 132.47-1.73Q133.01-1.21 133.97-1.21L133.97-1.21Q134.95-1.21 135.49-1.73Q136.03-2.25 136.03-3.28L136.03-3.28L136.03-9.04L137.51-9.04L137.51-3.30Q137.51-2.20 137.03-1.43Q136.55-0.66 135.74-0.29Q134.94 0.09 133.96 0.09L133.96 0.09Q132.99 0.09 132.19-0.29Q131.39-0.66 130.92-1.43Q130.45-2.20 130.45-3.30L130.45-3.30L130.45-9.04ZM149.89 0L148.13 0L146.05-3.61L144.91-3.61L144.91 0L143.43 0L143.43-9.04L146.55-9.04Q147.59-9.04 148.31-8.67Q149.04-8.31 149.39-7.70Q149.75-7.09 149.75-6.33L149.75-6.33Q149.75-5.45 149.24-4.73Q148.72-4.00 147.66-3.74L147.66-3.74L149.89 0ZM144.91-7.83L144.91-4.80L146.55-4.80Q147.38-4.80 147.81-5.21Q148.23-5.63 148.23-6.33L148.23-6.33Q148.23-7.03 147.81-7.43Q147.40-7.83 146.55-7.83L146.55-7.83L144.91-7.83ZM155.16-4.54Q155.16-5.86 155.77-6.92Q156.39-7.97 157.45-8.56Q158.51-9.15 159.77-9.15L159.77-9.15Q161.21-9.15 162.34-8.44Q163.46-7.74 163.97-6.44L163.97-6.44L162.19-6.44Q161.84-7.15 161.21-7.50Q160.59-7.85 159.77-7.85L159.77-7.85Q158.87-7.85 158.17-7.45Q157.47-7.05 157.07-6.29Q156.68-5.54 156.68-4.54L156.68-4.54Q156.68-3.54 157.07-2.78Q157.47-2.03 158.17-1.62Q158.87-1.21 159.77-1.21L159.77-1.21Q160.59-1.21 161.21-1.56Q161.84-1.91 162.19-2.63L162.19-2.63L163.97-2.63Q163.46-1.33 162.34-0.62Q161.21 0.08 159.77 0.08L159.77 0.08Q158.50 0.08 157.44-0.51Q156.39-1.11 155.77-2.16Q155.16-3.21 155.16-4.54L155.16-4.54ZM174.69-7.84L171.18-7.84L171.18-5.19L174.30-5.19L174.30-3.98L171.18-3.98L171.18-1.21L174.69-1.21L174.69 0L169.70 0L169.70-9.05L174.69-9.05L174.69-7.84ZM183.49 0.09Q182.58 0.09 181.85-0.23Q181.12-0.55 180.71-1.13Q180.29-1.72 180.29-2.50L180.29-2.50L181.88-2.50Q181.93-1.91 182.34-1.53Q182.75-1.16 183.49-1.16L183.49-1.16Q184.25-1.16 184.68-1.53Q185.11-1.90 185.11-2.48L185.11-2.48Q185.11-2.94 184.85-3.22Q184.58-3.51 184.18-3.67Q183.79-3.82 183.08-4.00L183.08-4.00Q182.20-4.24 181.65-4.48Q181.10-4.72 180.71-5.23Q180.32-5.73 180.32-6.58L180.32-6.58Q180.32-7.36 180.71-7.94Q181.10-8.53 181.80-8.84Q182.50-9.15 183.42-9.15L183.42-9.15Q184.74-9.15 185.57-8.50Q186.41-7.84 186.50-6.70L186.50-6.70L184.87-6.70Q184.83-7.19 184.40-7.54Q183.97-7.89 183.27-7.89L183.27-7.89Q182.63-7.89 182.23-7.57Q181.82-7.24 181.82-6.63L181.82-6.63Q181.82-6.21 182.08-5.95Q182.33-5.68 182.72-5.53Q183.11-5.37 183.79-5.19L183.79-5.19Q184.68-4.94 185.25-4.69Q185.81-4.45 186.21-3.93Q186.61-3.42 186.61-2.56L186.61-2.56Q186.61-1.87 186.24-1.26Q185.87-0.65 185.16-0.28Q184.45 0.09 183.49 0.09L183.49 0.09Z" fill="#166534" transform="translate(118, 34)"/>
  <path d="M1.25-13.38Q1.25-17.33 2.96-20.43Q4.67-23.52 7.73-25.25Q10.79-26.98 14.67-26.98L14.67-26.98Q19.42-26.98 22.80-24.47Q26.18-21.96 27.32-17.63L27.32-17.63L20.18-17.63Q19.38-19.30 17.92-20.18Q16.45-21.05 14.59-21.05L14.59-21.05Q11.59-21.05 9.73-18.96Q7.87-16.87 7.87-13.38L7.87-13.38Q7.87-9.88 9.73-7.79Q11.59-5.70 14.59-5.70L14.59-5.70Q16.45-5.70 17.92-6.57Q19.38-7.45 20.18-9.12L20.18-9.12L27.32-9.12Q26.18-4.79 22.80-2.30Q19.42 0.19 14.67 0.19L14.67 0.19Q10.79 0.19 7.73-1.54Q4.67-3.27 2.96-6.35Q1.25-9.42 1.25-13.38L1.25-13.38ZM38.31-26.68L44.81-26.68L44.81 0L38.31 0L38.31-26.68ZM55.08-26.68L75.71-26.68L75.71-21.47L68.64-21.47L68.64 0L62.15 0L62.15-21.47L55.08-21.47L55.08-26.68ZM104.18 0L102.59-4.71L92.63-4.71L91.03 0L84.23 0L93.88-26.68L101.41-26.68L111.06 0L104.18 0ZM94.34-9.73L100.91-9.73L97.61-19.49L94.34-9.73ZM130.98-26.68Q135.20-26.68 138.35-25.00Q141.51-23.33 143.23-20.31Q144.96-17.29 144.96-13.34L144.96-13.34Q144.96-9.42 143.23-6.38Q141.51-3.34 138.33-1.67Q135.16 0 130.98 0L130.98 0L120.99 0L120.99-26.68L130.98-26.68ZM130.56-5.62Q134.25-5.62 136.30-7.64Q138.35-9.65 138.35-13.34L138.35-13.34Q138.35-17.02 136.30-19.08Q134.25-21.13 130.56-21.13L130.56-21.13L127.48-21.13L127.48-5.62L130.56-5.62ZM171.95-21.47L162.11-21.47L162.11-16.07L170.81-16.07L170.81-11.06L162.11-11.06L162.11-5.21L171.95-5.21L171.95 0L155.61 0L155.61-26.68L171.95-26.68L171.95-21.47ZM189.67-26.68L189.67-5.02L198.18-5.02L198.18 0L183.17 0L183.17-26.68L189.67-26.68Z" fill="#14532D" transform="translate(118, 74)"/>
  <path d="M1.35-6.29L1.35-0.51L3.61-0.51L3.61 0L0.72 0L0.72-6.29L1.35-6.29ZM9.51-6.29L10.14-6.29L10.14 0L9.51 0L9.51-6.29ZM22.04-6.21L22.72-6.21L22.72 0L22.09 0L22.09-4.96L19.87 0L19.41 0L17.20-4.94L17.20 0L16.57 0L16.57-6.21L17.24-6.21L19.64-0.83L22.04-6.21ZM29.15-6.29L29.78-6.29L29.78 0L29.15 0L29.15-6.29ZM35.76-6.29L39.89-6.29L39.89-5.77L38.14-5.77L38.14 0L37.51 0L37.51-5.77L35.76-5.77L35.76-6.29ZM49.17-5.78L46.52-5.78L46.52-3.43L48.90-3.43L48.90-2.91L46.52-2.91L46.52-0.52L49.17-0.52L49.17 0L45.89 0L45.89-6.30L49.17-6.30L49.17-5.78ZM57.28-6.29Q58.32-6.29 59.07-5.91Q59.82-5.54 60.21-4.82Q60.61-4.11 60.61-3.13L60.61-3.13Q60.61-2.16 60.21-1.45Q59.82-0.75 59.07-0.37Q58.32 0 57.28 0L57.28 0L55.42 0L55.42-6.29L57.28-6.29ZM57.28-0.52Q58.59-0.52 59.28-1.21Q59.97-1.90 59.97-3.13L59.97-3.13Q59.97-4.37 59.28-5.07Q58.59-5.77 57.28-5.77L57.28-5.77L56.05-5.77L56.05-0.52L57.28-0.52Z" fill="#15803D" transform="translate(118, 98)"/>
</svg>
