<?xml version="1.0" standalone="no"?>
<svg xmlns="http://www.w3.org/2000/svg" version="1.1" width="403" height="403">
	<!-- Created with https://api.qrserver.com (QR Code API, see goQR.me/api for information) -->
	<title>QR Code</title>
	<desc>https://global-resources.org/contact/</desc>
	<rect style="fill:rgb(240, 253, 244);fill-opacity:1" x="0" y="0" width="403" height="403" />
	<g id="elements">
		<path style="fill:rgb(20, 83, 45)" d="M 13,13 l 13,0 0,13 -13,0 z M 26,13 l 13,0 0,13 -13,0 z M 39,13 l 13,0 0,13 -13,0 z M 52,13 l 13,0 0,13 -13,0 z M 65,13 l 13,0 0,13 -13,0 z M 78,13 l 13,0 0,13 -13,0 z M 91,13 l 13,0 0,13 -13,0 z M 130,13 l 13,0 0,13 -13,0 z M 182,13 l 13,0 0,13 -13,0 z M 247,13 l 13,0 0,13 -13,0 z M 260,13 l 13,0 0,13 -13,0 z M 273,13 l 13,0 0,13 -13,0 z M 299,13 l 13,0 0,13 -13,0 z M 312,13 l 13,0 0,13 -13,0 z M 325,13 l 13,0 0,13 -13,0 z M 338,13 l 13,0 0,13 -13,0 z M 351,13 l 13,0 0,13 -13,0 z M 364,13 l 13,0 0,13 -13,0 z M 377,13 l 13,0 0,13 -13,0 z M 13,26 l 13,0 0,13 -13,0 z M 91,26 l 13,0 0,13 -13,0 z M 117,26 l 13,0 0,13 -13,0 z M 130,26 l 13,0 0,13 -13,0 z M 156,26 l 13,0 0,13 -13,0 z M 169,26 l 13,0 0,13 -13,0 z M 182,26 l 13,0 0,13 -13,0 z M 195,26 l 13,0 0,13 -13,0 z M 208,26 l 13,0 0,13 -13,0 z M 273,26 l 13,0 0,13 -13,0 z M 299,26 l 13,0 0,13 -13,0 z M 377,26 l 13,0 0,13 -13,0 z M 13,39 l 13,0 0,13 -13,0 z M 39,39 l 13,0 0,13 -13,0 z M 52,39 l 13,0 0,13 -13,0 z M 65,39 l 13,0 0,13 -13,0 z M 91,39 l 13,0 0,13 -13,0 z M 130,39 l 13,0 0,13 -13,0 z M 143,39 l 13,0 0,13 -13,0 z M 156,39 l 13,0 0,13 -13,0 z M 195,39 l 13,0 0,13 -13,0 z M 208,39 l 13,0 0,13 -13,0 z M 221,39 l 13,0 0,13 -13,0 z M 260,39 l 13,0 0,13 -13,0 z M 299,39 l 13,0 0,13 -13,0 z M 325,39 l 13,0 0,13 -13,0 z M 338,39 l 13,0 0,13 -13,0 z M 351,39 l 13,0 0,13 -13,0 z M 377,39 l 13,0 0,13 -13,0 z M 13,52 l 13,0 0,13 -13,0 z M 39,52 l 13,0 0,13 -13,0 z M 52,52 l 13,0 0,13 -13,0 z M 65,52 l 13,0 0,13 -13,0 z M 91,52 l 13,0 0,13 -13,0 z M 117,52 l 13,0 0,13 -13,0 z M 130,52 l 13,0 0,13 -13,0 z M 156,52 l 13,0 0,13 -13,0 z M 208,52 l 13,0 0,13 -13,0 z M 221,52 l 13,0 0,13 -13,0 z M 234,52 l 13,0 0,13 -13,0 z M 299,52 l 13,0 0,13 -13,0 z M 325,52 l 13,0 0,13 -13,0 z M 338,52 l 13,0 0,13 -13,0 z M 351,52 l 13,0 0,13 -13,0 z M 377,52 l 13,0 0,13 -13,0 z M 13,65 l 13,0 0,13 -13,0 z M 39,65 l 13,0 0,13 -13,0 z M 52,65 l 13,0 0,13 -13,0 z M 65,65 l 13,0 0,13 -13,0 z M 91,65 l 13,0 0,13 -13,0 z M 143,65 l 13,0 0,13 -13,0 z M 169,65 l 13,0 0,13 -13,0 z M 182,65 l 13,0 0,13 -13,0 z M 221,65 l 13,0 0,13 -13,0 z M 260,65 l 13,0 0,13 -13,0 z M 273,65 l 13,0 0,13 -13,0 z M 299,65 l 13,0 0,13 -13,0 z M 325,65 l 13,0 0,13 -13,0 z M 338,65 l 13,0 0,13 -13,0 z M 351,65 l 13,0 0,13 -13,0 z M 377,65 l 13,0 0,13 -13,0 z M 13,78 l 13,0 0,13 -13,0 z M 91,78 l 13,0 0,13 -13,0 z M 117,78 l 13,0 0,13 -13,0 z M 143,78 l 13,0 0,13 -13,0 z M 182,78 l 13,0 0,13 -13,0 z M 195,78 l 13,0 0,13 -13,0 z M 208,78 l 13,0 0,13 -13,0 z M 221,78 l 13,0 0,13 -13,0 z M 234,78 l 13,0 0,13 -13,0 z M 247,78 l 13,0 0,13 -13,0 z M 299,78 l 13,0 0,13 -13,0 z M 377,78 l 13,0 0,13 -13,0 z M 13,91 l 13,0 0,13 -13,0 z M 26,91 l 13,0 0,13 -13,0 z M 39,91 l 13,0 0,13 -13,0 z M 52,91 l 13,0 0,13 -13,0 z M 65,91 l 13,0 0,13 -13,0 z M 78,91 l 13,0 0,13 -13,0 z M 91,91 l 13,0 0,13 -13,0 z M 117,91 l 13,0 0,13 -13,0 z M 143,91 l 13,0 0,13 -13,0 z M 169,91 l 13,0 0,13 -13,0 z M 195,91 l 13,0 0,13 -13,0 z M 221,91 l 13,0 0,13 -13,0 z M 247,91 l 13,0 0,13 -13,0 z M 273,91 l 13,0 0,13 -13,0 z M 299,91 l 13,0 0,13 -13,0 z M 312,91 l 13,0 0,13 -13,0 z M 325,91 l 13,0 0,13 -13,0 z M 338,91 l 13,0 0,13 -13,0 z M 351,91 l 13,0 0,13 -13,0 z M 364,91 l 13,0 0,13 -13,0 z M 377,91 l 13,0 0,13 -13,0 z M 169,104 l 13,0 0,13 -13,0 z M 182,104 l 13,0 0,13 -13,0 z M 260,104 l 13,0 0,13 -13,0 z M 13,117 l 13,0 0,13 -13,0 z M 26,117 l 13,0 0,13 -13,0 z M 39,117 l 13,0 0,13 -13,0 z M 52,117 l 13,0 0,13 -13,0 z M 65,117 l 13,0 0,13 -13,0 z M 91,117 l 13,0 0,13 -13,0 z M 104,117 l 13,0 0,13 -13,0 z M 117,117 l 13,0 0,13 -13,0 z M 130,117 l 13,0 0,13 -13,0 z M 143,117 l 13,0 0,13 -13,0 z M 169,117 l 13,0 0,13 -13,0 z M 195,117 l 13,0 0,13 -13,0 z M 208,117 l 13,0 0,13 -13,0 z M 234,117 l 13,0 0,13 -13,0 z M 247,117 l 13,0 0,13 -13,0 z M 273,117 l 13,0 0,13 -13,0 z M 286,117 l 13,0 0,13 -13,0 z M 312,117 l 13,0 0,13 -13,0 z M 338,117 l 13,0 0,13 -13,0 z M 364,117 l 13,0 0,13 -13,0 z M 26,130 l 13,0 0,13 -13,0 z M 39,130 l 13,0 0,13 -13,0 z M 104,130 l 13,0 0,13 -13,0 z M 130,130 l 13,0 0,13 -13,0 z M 221,130 l 13,0 0,13 -13,0 z M 234,130 l 13,0 0,13 -13,0 z M 247,130 l 13,0 0,13 -13,0 z M 260,130 l 13,0 0,13 -13,0 z M 273,130 l 13,0 0,13 -13,0 z M 286,130 l 13,0 0,13 -13,0 z M 299,130 l 13,0 0,13 -13,0 z M 312,130 l 13,0 0,13 -13,0 z M 325,130 l 13,0 0,13 -13,0 z M 377,130 l 13,0 0,13 -13,0 z M 13,143 l 13,0 0,13 -13,0 z M 52,143 l 13,0 0,13 -13,0 z M 91,143 l 13,0 0,13 -13,0 z M 104,143 l 13,0 0,13 -13,0 z M 117,143 l 13,0 0,13 -13,0 z M 130,143 l 13,0 0,13 -13,0 z M 156,143 l 13,0 0,13 -13,0 z M 169,143 l 13,0 0,13 -13,0 z M 208,143 l 13,0 0,13 -13,0 z M 221,143 l 13,0 0,13 -13,0 z M 234,143 l 13,0 0,13 -13,0 z M 273,143 l 13,0 0,13 -13,0 z M 286,143 l 13,0 0,13 -13,0 z M 13,156 l 13,0 0,13 -13,0 z M 39,156 l 13,0 0,13 -13,0 z M 65,156 l 13,0 0,13 -13,0 z M 78,156 l 13,0 0,13 -13,0 z M 104,156 l 13,0 0,13 -13,0 z M 117,156 l 13,0 0,13 -13,0 z M 130,156 l 13,0 0,13 -13,0 z M 143,156 l 13,0 0,13 -13,0 z M 156,156 l 13,0 0,13 -13,0 z M 195,156 l 13,0 0,13 -13,0 z M 208,156 l 13,0 0,13 -13,0 z M 247,156 l 13,0 0,13 -13,0 z M 273,156 l 13,0 0,13 -13,0 z M 325,156 l 13,0 0,13 -13,0 z M 338,156 l 13,0 0,13 -13,0 z M 364,156 l 13,0 0,13 -13,0 z M 26,169 l 13,0 0,13 -13,0 z M 39,169 l 13,0 0,13 -13,0 z M 52,169 l 13,0 0,13 -13,0 z M 78,169 l 13,0 0,13 -13,0 z M 91,169 l 13,0 0,13 -13,0 z M 104,169 l 13,0 0,13 -13,0 z M 117,169 l 13,0 0,13 -13,0 z M 130,169 l 13,0 0,13 -13,0 z M 156,169 l 13,0 0,13 -13,0 z M 208,169 l 13,0 0,13 -13,0 z M 234,169 l 13,0 0,13 -13,0 z M 273,169 l 13,0 0,13 -13,0 z M 338,169 l 13,0 0,13 -13,0 z M 351,169 l 13,0 0,13 -13,0 z M 13,182 l 13,0 0,13 -13,0 z M 26,182 l 13,0 0,13 -13,0 z M 39,182 l 13,0 0,13 -13,0 z M 52,182 l 13,0 0,13 -13,0 z M 78,182 l 13,0 0,13 -13,0 z M 104,182 l 13,0 0,13 -13,0 z M 143,182 l 13,0 0,13 -13,0 z M 169,182 l 13,0 0,13 -13,0 z M 182,182 l 13,0 0,13 -13,0 z M 195,182 l 13,0 0,13 -13,0 z M 221,182 l 13,0 0,13 -13,0 z M 234,182 l 13,0 0,13 -13,0 z M 247,182 l 13,0 0,13 -13,0 z M 260,182 l 13,0 0,13 -13,0 z M 273,182 l 13,0 0,13 -13,0 z M 286,182 l 13,0 0,13 -13,0 z M 299,182 l 13,0 0,13 -13,0 z M 312,182 l 13,0 0,13 -13,0 z M 325,182 l 13,0 0,13 -13,0 z M 377,182 l 13,0 0,13 -13,0 z M 13,195 l 13,0 0,13 -13,0 z M 52,195 l 13,0 0,13 -13,0 z M 91,195 l 13,0 0,13 -13,0 z M 104,195 l 13,0 0,13 -13,0 z M 117,195 l 13,0 0,13 -13,0 z M 130,195 l 13,0 0,13 -13,0 z M 143,195 l 13,0 0,13 -13,0 z M 182,195 l 13,0 0,13 -13,0 z M 195,195 l 13,0 0,13 -13,0 z M 208,195 l 13,0 0,13 -13,0 z M 234,195 l 13,0 0,13 -13,0 z M 273,195 l 13,0 0,13 -13,0 z M 299,195 l 13,0 0,13 -13,0 z M 312,195 l 13,0 0,13 -13,0 z M 338,195 l 13,0 0,13 -13,0 z M 351,195 l 13,0 0,13 -13,0 z M 13,208 l 13,0 0,13 -13,0 z M 26,208 l 13,0 0,13 -13,0 z M 130,208 l 13,0 0,13 -13,0 z M 169,208 l 13,0 0,13 -13,0 z M 182,208 l 13,0 0,13 -13,0 z M 208,208 l 13,0 0,13 -13,0 z M 221,208 l 13,0 0,13 -13,0 z M 260,208 l 13,0 0,13 -13,0 z M 273,208 l 13,0 0,13 -13,0 z M 286,208 l 13,0 0,13 -13,0 z M 312,208 l 13,0 0,13 -13,0 z M 364,208 l 13,0 0,13 -13,0 z M 26,221 l 13,0 0,13 -13,0 z M 52,221 l 13,0 0,13 -13,0 z M 91,221 l 13,0 0,13 -13,0 z M 143,221 l 13,0 0,13 -13,0 z M 169,221 l 13,0 0,13 -13,0 z M 195,221 l 13,0 0,13 -13,0 z M 208,221 l 13,0 0,13 -13,0 z M 221,221 l 13,0 0,13 -13,0 z M 234,221 l 13,0 0,13 -13,0 z M 260,221 l 13,0 0,13 -13,0 z M 286,221 l 13,0 0,13 -13,0 z M 338,221 l 13,0 0,13 -13,0 z M 351,221 l 13,0 0,13 -13,0 z M 13,234 l 13,0 0,13 -13,0 z M 52,234 l 13,0 0,13 -13,0 z M 65,234 l 13,0 0,13 -13,0 z M 117,234 l 13,0 0,13 -13,0 z M 221,234 l 13,0 0,13 -13,0 z M 260,234 l 13,0 0,13 -13,0 z M 273,234 l 13,0 0,13 -13,0 z M 286,234 l 13,0 0,13 -13,0 z M 299,234 l 13,0 0,13 -13,0 z M 312,234 l 13,0 0,13 -13,0 z M 325,234 l 13,0 0,13 -13,0 z M 351,234 l 13,0 0,13 -13,0 z M 377,234 l 13,0 0,13 -13,0 z M 13,247 l 13,0 0,13 -13,0 z M 39,247 l 13,0 0,13 -13,0 z M 65,247 l 13,0 0,13 -13,0 z M 91,247 l 13,0 0,13 -13,0 z M 117,247 l 13,0 0,13 -13,0 z M 130,247 l 13,0 0,13 -13,0 z M 156,247 l 13,0 0,13 -13,0 z M 169,247 l 13,0 0,13 -13,0 z M 208,247 l 13,0 0,13 -13,0 z M 234,247 l 13,0 0,13 -13,0 z M 247,247 l 13,0 0,13 -13,0 z M 273,247 l 13,0 0,13 -13,0 z M 299,247 l 13,0 0,13 -13,0 z M 325,247 l 13,0 0,13 -13,0 z M 351,247 l 13,0 0,13 -13,0 z M 13,260 l 13,0 0,13 -13,0 z M 65,260 l 13,0 0,13 -13,0 z M 117,260 l 13,0 0,13 -13,0 z M 130,260 l 13,0 0,13 -13,0 z M 156,260 l 13,0 0,13 -13,0 z M 195,260 l 13,0 0,13 -13,0 z M 221,260 l 13,0 0,13 -13,0 z M 247,260 l 13,0 0,13 -13,0 z M 260,260 l 13,0 0,13 -13,0 z M 312,260 l 13,0 0,13 -13,0 z M 364,260 l 13,0 0,13 -13,0 z M 13,273 l 13,0 0,13 -13,0 z M 52,273 l 13,0 0,13 -13,0 z M 65,273 l 13,0 0,13 -13,0 z M 78,273 l 13,0 0,13 -13,0 z M 91,273 l 13,0 0,13 -13,0 z M 104,273 l 13,0 0,13 -13,0 z M 130,273 l 13,0 0,13 -13,0 z M 156,273 l 13,0 0,13 -13,0 z M 234,273 l 13,0 0,13 -13,0 z M 273,273 l 13,0 0,13 -13,0 z M 286,273 l 13,0 0,13 -13,0 z M 299,273 l 13,0 0,13 -13,0 z M 312,273 l 13,0 0,13 -13,0 z M 325,273 l 13,0 0,13 -13,0 z M 351,273 l 13,0 0,13 -13,0 z M 364,273 l 13,0 0,13 -13,0 z M 377,273 l 13,0 0,13 -13,0 z M 117,286 l 13,0 0,13 -13,0 z M 130,286 l 13,0 0,13 -13,0 z M 169,286 l 13,0 0,13 -13,0 z M 182,286 l 13,0 0,13 -13,0 z M 195,286 l 13,0 0,13 -13,0 z M 221,286 l 13,0 0,13 -13,0 z M 247,286 l 13,0 0,13 -13,0 z M 260,286 l 13,0 0,13 -13,0 z M 273,286 l 13,0 0,13 -13,0 z M 325,286 l 13,0 0,13 -13,0 z M 338,286 l 13,0 0,13 -13,0 z M 351,286 l 13,0 0,13 -13,0 z M 364,286 l 13,0 0,13 -13,0 z M 377,286 l 13,0 0,13 -13,0 z M 13,299 l 13,0 0,13 -13,0 z M 26,299 l 13,0 0,13 -13,0 z M 39,299 l 13,0 0,13 -13,0 z M 52,299 l 13,0 0,13 -13,0 z M 65,299 l 13,0 0,13 -13,0 z M 78,299 l 13,0 0,13 -13,0 z M 91,299 l 13,0 0,13 -13,0 z M 117,299 l 13,0 0,13 -13,0 z M 130,299 l 13,0 0,13 -13,0 z M 143,299 l 13,0 0,13 -13,0 z M 182,299 l 13,0 0,13 -13,0 z M 195,299 l 13,0 0,13 -13,0 z M 208,299 l 13,0 0,13 -13,0 z M 221,299 l 13,0 0,13 -13,0 z M 234,299 l 13,0 0,13 -13,0 z M 260,299 l 13,0 0,13 -13,0 z M 273,299 l 13,0 0,13 -13,0 z M 299,299 l 13,0 0,13 -13,0 z M 325,299 l 13,0 0,13 -13,0 z M 338,299 l 13,0 0,13 -13,0 z M 351,299 l 13,0 0,13 -13,0 z M 13,312 l 13,0 0,13 -13,0 z M 91,312 l 13,0 0,13 -13,0 z M 143,312 l 13,0 0,13 -13,0 z M 169,312 l 13,0 0,13 -13,0 z M 182,312 l 13,0 0,13 -13,0 z M 221,312 l 13,0 0,13 -13,0 z M 260,312 l 13,0 0,13 -13,0 z M 273,312 l 13,0 0,13 -13,0 z M 325,312 l 13,0 0,13 -13,0 z M 13,325 l 13,0 0,13 -13,0 z M 39,325 l 13,0 0,13 -13,0 z M 52,325 l 13,0 0,13 -13,0 z M 65,325 l 13,0 0,13 -13,0 z M 91,325 l 13,0 0,13 -13,0 z M 117,325 l 13,0 0,13 -13,0 z M 143,325 l 13,0 0,13 -13,0 z M 169,325 l 13,0 0,13 -13,0 z M 195,325 l 13,0 0,13 -13,0 z M 234,325 l 13,0 0,13 -13,0 z M 247,325 l 13,0 0,13 -13,0 z M 273,325 l 13,0 0,13 -13,0 z M 286,325 l 13,0 0,13 -13,0 z M 299,325 l 13,0 0,13 -13,0 z M 312,325 l 13,0 0,13 -13,0 z M 325,325 l 13,0 0,13 -13,0 z M 351,325 l 13,0 0,13 -13,0 z M 13,338 l 13,0 0,13 -13,0 z M 39,338 l 13,0 0,13 -13,0 z M 52,338 l 13,0 0,13 -13,0 z M 65,338 l 13,0 0,13 -13,0 z M 91,338 l 13,0 0,13 -13,0 z M 117,338 l 13,0 0,13 -13,0 z M 130,338 l 13,0 0,13 -13,0 z M 143,338 l 13,0 0,13 -13,0 z M 221,338 l 13,0 0,13 -13,0 z M 234,338 l 13,0 0,13 -13,0 z M 247,338 l 13,0 0,13 -13,0 z M 260,338 l 13,0 0,13 -13,0 z M 338,338 l 13,0 0,13 -13,0 z M 351,338 l 13,0 0,13 -13,0 z M 364,338 l 13,0 0,13 -13,0 z M 377,338 l 13,0 0,13 -13,0 z M 13,351 l 13,0 0,13 -13,0 z M 39,351 l 13,0 0,13 -13,0 z M 52,351 l 13,0 0,13 -13,0 z M 65,351 l 13,0 0,13 -13,0 z M 91,351 l 13,0 0,13 -13,0 z M 117,351 l 13,0 0,13 -13,0 z M 130,351 l 13,0 0,13 -13,0 z M 143,351 l 13,0 0,13 -13,0 z M 156,351 l 13,0 0,13 -13,0 z M 169,351 l 13,0 0,13 -13,0 z M 208,351 l 13,0 0,13 -13,0 z M 221,351 l 13,0 0,13 -13,0 z M 234,351 l 13,0 0,13 -13,0 z M 260,351 l 13,0 0,13 -13,0 z M 299,351 l 13,0 0,13 -13,0 z M 312,351 l 13,0 0,13 -13,0 z M 325,351 l 13,0 0,13 -13,0 z M 338,351 l 13,0 0,13 -13,0 z M 351,351 l 13,0 0,13 -13,0 z M 364,351 l 13,0 0,13 -13,0 z M 13,364 l 13,0 0,13 -13,0 z M 91,364 l 13,0 0,13 -13,0 z M 117,364 l 13,0 0,13 -13,0 z M 130,364 l 13,0 0,13 -13,0 z M 156,364 l 13,0 0,13 -13,0 z M 195,364 l 13,0 0,13 -13,0 z M 273,364 l 13,0 0,13 -13,0 z M 286,364 l 13,0 0,13 -13,0 z M 312,364 l 13,0 0,13 -13,0 z M 338,364 l 13,0 0,13 -13,0 z M 364,364 l 13,0 0,13 -13,0 z M 13,377 l 13,0 0,13 -13,0 z M 26,377 l 13,0 0,13 -13,0 z M 39,377 l 13,0 0,13 -13,0 z M 52,377 l 13,0 0,13 -13,0 z M 65,377 l 13,0 0,13 -13,0 z M 78,377 l 13,0 0,13 -13,0 z M 91,377 l 13,0 0,13 -13,0 z M 117,377 l 13,0 0,13 -13,0 z M 156,377 l 13,0 0,13 -13,0 z M 208,377 l 13,0 0,13 -13,0 z M 234,377 l 13,0 0,13 -13,0 z M 260,377 l 13,0 0,13 -13,0 z M 286,377 l 13,0 0,13 -13,0 z M 299,377 l 13,0 0,13 -13,0 z M 312,377 l 13,0 0,13 -13,0 z M 325,377 l 13,0 0,13 -13,0 z M 351,377 l 13,0 0,13 -13,0 z " />
	</g>
</svg>
